<svg xmlns="http://www.w3.org/2000/svg" viewBox="0 0 800 500" role="img" aria-labelledby="title desc">
  <title id="title">About page growth illustration</title>
  <desc id="desc">A learning journey graphic with milestones for study, practice, and project growth.</desc>
  <rect width="800" height="500" fill="#f8fafc"/>
  <path d="M80 380 C180 260, 280 430, 390 300 S610 170, 720 105" fill="none" stroke="#38bdf8" stroke-width="18" stroke-linecap="round"/>
  <circle cx="120" cy="345" r="34" fill="#1f2937"/>
  <circle cx="285" cy="355" r="34" fill="#f97316"/>
  <circle cx="470" cy="245" r="34" fill="#1f2937"/>
  <circle cx="660" cy="120" r="34" fill="#38bdf8"/>
  <rect x="80" y="95" width="250" height="125" rx="22" fill="#e2e8f0"/>
  <rect x="110" y="128" width="130" height="18" rx="9" fill="#1f2937"/>
  <rect x="110" y="160" width="170" height="12" rx="6" fill="#64748b"/>
  <rect x="110" y="184" width="145" height="12" rx="6" fill="#64748b"/>
  <rect x="430" y="300" width="290" height="120" rx="22" fill="#dbeafe"/>
  <rect x="465" y="334" width="150" height="18" rx="9" fill="#1f2937"/>
  <rect x="465" y="366" width="210" height="12" rx="6" fill="#475569"/>
  <rect x="465" y="390" width="185" height="12" rx="6" fill="#475569"/>
</svg>
