<svg xmlns="http://www.w3.org/2000/svg" viewBox="0 0 800 500" role="img" aria-labelledby="title desc">
  <title id="title">About page workspace illustration</title>
  <desc id="desc">A study workspace with a laptop, notebook, and planning board.</desc>
  <rect width="800" height="500" fill="#fffaf5"/>
  <rect x="60" y="340" width="680" height="28" rx="14" fill="#cbd5e1"/>
  <rect x="250" y="165" width="300" height="165" rx="18" fill="#1f2937"/>
  <rect x="275" y="190" width="250" height="110" rx="10" fill="#dbeafe"/>
  <rect x="370" y="330" width="60" height="34" rx="12" fill="#64748b"/>
  <rect x="310" y="364" width="180" height="18" rx="9" fill="#94a3b8"/>
  <rect x="95" y="130" width="115" height="160" rx="18" fill="#f97316"/>
  <line x1="125" y1="165" x2="180" y2="165" stroke="#ffffff" stroke-width="8" stroke-linecap="round"/>
  <line x1="125" y1="200" x2="180" y2="200" stroke="#ffffff" stroke-width="8" stroke-linecap="round"/>
  <line x1="125" y1="235" x2="165" y2="235" stroke="#ffffff" stroke-width="8" stroke-linecap="round"/>
  <rect x="595" y="110" width="130" height="180" rx="18" fill="#ffffff" stroke="#38bdf8" stroke-width="10"/>
  <rect x="620" y="145" width="70" height="16" rx="8" fill="#1f2937"/>
  <rect x="620" y="178" width="80" height="12" rx="6" fill="#64748b"/>
  <rect x="620" y="203" width="60" height="12" rx="6" fill="#64748b"/>
  <circle cx="655" cy="245" r="18" fill="#38bdf8"/>
  <circle cx="695" cy="245" r="18" fill="#f97316"/>
</svg>
