<svg xmlns="http://www.w3.org/2000/svg" viewBox="0 0 800 500" role="img" aria-labelledby="title desc">
  <title id="title">Home introduction illustration</title>
  <desc id="desc">A portfolio layout with a profile block, navigation, and featured content cards.</desc>
  <rect width="800" height="500" fill="#f8fafc"/>
  <rect x="30" y="30" width="740" height="70" rx="18" fill="#1f2937"/>
  <circle cx="95" cy="65" r="22" fill="#38bdf8"/>
  <rect x="135" y="50" width="180" height="14" rx="7" fill="#f8fafc"/>
  <rect x="135" y="72" width="120" height="10" rx="5" fill="#cbd5e1"/>
  <rect x="520" y="50" width="90" height="14" rx="7" fill="#38bdf8"/>
  <rect x="625" y="50" width="90" height="14" rx="7" fill="#f97316"/>
  <rect x="50" y="130" width="250" height="300" rx="24" fill="#e2e8f0"/>
  <circle cx="175" cy="210" r="58" fill="#38bdf8"/>
  <rect x="95" y="292" width="160" height="18" rx="9" fill="#1f2937"/>
  <rect x="110" y="324" width="130" height="12" rx="6" fill="#64748b"/>
  <rect x="88" y="365" width="174" height="38" rx="19" fill="#f97316"/>
  <rect x="330" y="130" width="420" height="135" rx="24" fill="#dbeafe"/>
  <rect x="360" y="165" width="220" height="20" rx="10" fill="#1f2937"/>
  <rect x="360" y="200" width="340" height="14" rx="7" fill="#475569"/>
  <rect x="360" y="226" width="300" height="14" rx="7" fill="#475569"/>
  <rect x="330" y="285" width="198" height="145" rx="22" fill="#1f2937"/>
  <rect x="552" y="285" width="198" height="145" rx="22" fill="#38bdf8"/>
  <rect x="358" y="320" width="120" height="16" rx="8" fill="#f8fafc"/>
  <rect x="358" y="350" width="138" height="12" rx="6" fill="#cbd5e1"/>
  <rect x="580" y="320" width="120" height="16" rx="8" fill="#0f172a"/>
  <rect x="580" y="350" width="140" height="12" rx="6" fill="#1e293b"/>
</svg>
