<svg xmlns="http://www.w3.org/2000/svg" viewBox="0 0 800 500" role="img" aria-labelledby="title desc">
  <title id="title">Projects showcase illustration</title>
  <desc id="desc">A display of portfolio projects shown as browser windows with labels.</desc>
  <rect width="800" height="500" fill="#f8fafc"/>
  <rect x="80" y="85" width="300" height="220" rx="22" fill="#1f2937"/>
  <rect x="105" y="120" width="250" height="145" rx="14" fill="#dbeafe"/>
  <circle cx="120" cy="103" r="8" fill="#f97316"/>
  <circle cx="145" cy="103" r="8" fill="#38bdf8"/>
  <circle cx="170" cy="103" r="8" fill="#cbd5e1"/>
  <rect x="105" y="330" width="120" height="20" rx="10" fill="#38bdf8"/>
  <rect x="240" y="330" width="95" height="20" rx="10" fill="#f97316"/>
  <rect x="420" y="135" width="300" height="220" rx="22" fill="#ffffff" stroke="#1f2937" stroke-width="12"/>
  <rect x="445" y="170" width="250" height="145" rx="14" fill="#e2e8f0"/>
  <circle cx="460" cy="153" r="8" fill="#f97316"/>
  <circle cx="485" cy="153" r="8" fill="#38bdf8"/>
  <circle cx="510" cy="153" r="8" fill="#cbd5e1"/>
  <rect x="445" y="380" width="110" height="20" rx="10" fill="#1f2937"/>
  <rect x="570" y="380" width="110" height="20" rx="10" fill="#38bdf8"/>
  <rect x="235" y="395" width="330" height="55" rx="26" fill="#f97316"/>
  <rect x="285" y="414" width="230" height="14" rx="7" fill="#fff7ed"/>
</svg>
