<svg xmlns="http://www.w3.org/2000/svg" viewBox="0 0 800 760" role="img" aria-labelledby="title desc">
  <title id="title">Projects page wireframe</title>
  <desc id="desc">Wireframe for the Projects page showing the shared header, section headline, project cards with images and text, a call to action, and footer.</desc>
  <rect width="800" height="760" fill="#ffffff"/>

  <rect x="30" y="24" width="740" height="76" rx="12" fill="#dbe4ee" stroke="#94a3b8" stroke-width="2"/>
  <rect x="54" y="42" width="150" height="40" rx="8" fill="#f8fafc" stroke="#94a3b8" stroke-width="2"/>
  <text x="129" y="67" text-anchor="middle" font-family="Arial, sans-serif" font-size="22" fill="#334155">Logo</text>
  <rect x="450" y="42" width="88" height="40" rx="8" fill="#f8fafc" stroke="#94a3b8" stroke-width="2"/>
  <rect x="548" y="42" width="98" height="40" rx="8" fill="#f8fafc" stroke="#94a3b8" stroke-width="2"/>
  <rect x="656" y="42" width="88" height="40" rx="8" fill="#f8fafc" stroke="#94a3b8" stroke-width="2"/>
  <text x="494" y="67" text-anchor="middle" font-family="Arial, sans-serif" font-size="18" fill="#334155">Home</text>
  <text x="597" y="67" text-anchor="middle" font-family="Arial, sans-serif" font-size="18" fill="#334155">About</text>
  <text x="700" y="67" text-anchor="middle" font-family="Arial, sans-serif" font-size="18" fill="#334155">Projects</text>

  <rect x="40" y="126" width="720" height="116" rx="14" fill="#f8fafc" stroke="#94a3b8" stroke-width="2"/>
  <text x="68" y="170" font-family="Arial, sans-serif" font-size="28" fill="#1f2937">Headline: Featured Projects</text>
  <rect x="68" y="196" width="610" height="10" rx="5" fill="#cbd5e1"/>
  <rect x="68" y="216" width="590" height="10" rx="5" fill="#cbd5e1"/>

  <rect x="40" y="272" width="220" height="324" rx="14" fill="#f8fafc" stroke="#94a3b8" stroke-width="2"/>
  <rect x="64" y="296" width="172" height="118" rx="12" fill="#e2e8f0" stroke="#94a3b8" stroke-width="2"/>
  <line x1="64" y1="296" x2="236" y2="414" stroke="#94a3b8" stroke-width="2"/>
  <line x1="236" y1="296" x2="64" y2="414" stroke="#94a3b8" stroke-width="2"/>
  <text x="150" y="360" text-anchor="middle" font-family="Arial, sans-serif" font-size="20" fill="#334155">Project Image</text>
  <text x="64" y="450" font-family="Arial, sans-serif" font-size="22" fill="#1f2937">Project Title</text>
  <rect x="64" y="468" width="152" height="10" rx="5" fill="#cbd5e1"/>
  <rect x="64" y="488" width="160" height="10" rx="5" fill="#cbd5e1"/>
  <rect x="64" y="508" width="148" height="10" rx="5" fill="#cbd5e1"/>
  <rect x="64" y="540" width="90" height="26" rx="13" fill="#fed7aa" stroke="#f97316" stroke-width="2"/>
  <text x="109" y="558" text-anchor="middle" font-family="Arial, sans-serif" font-size="15" fill="#9a3412">Details</text>

  <rect x="290" y="272" width="220" height="324" rx="14" fill="#f8fafc" stroke="#94a3b8" stroke-width="2"/>
  <rect x="314" y="296" width="172" height="118" rx="12" fill="#e2e8f0" stroke="#94a3b8" stroke-width="2"/>
  <line x1="314" y1="296" x2="486" y2="414" stroke="#94a3b8" stroke-width="2"/>
  <line x1="486" y1="296" x2="314" y2="414" stroke="#94a3b8" stroke-width="2"/>
  <text x="400" y="360" text-anchor="middle" font-family="Arial, sans-serif" font-size="20" fill="#334155">Project Image</text>
  <text x="314" y="450" font-family="Arial, sans-serif" font-size="22" fill="#1f2937">Project Title</text>
  <rect x="314" y="468" width="152" height="10" rx="5" fill="#cbd5e1"/>
  <rect x="314" y="488" width="160" height="10" rx="5" fill="#cbd5e1"/>
  <rect x="314" y="508" width="148" height="10" rx="5" fill="#cbd5e1"/>
  <rect x="314" y="540" width="90" height="26" rx="13" fill="#fed7aa" stroke="#f97316" stroke-width="2"/>
  <text x="359" y="558" text-anchor="middle" font-family="Arial, sans-serif" font-size="15" fill="#9a3412">Details</text>

  <rect x="540" y="272" width="220" height="324" rx="14" fill="#f8fafc" stroke="#94a3b8" stroke-width="2"/>
  <rect x="564" y="296" width="172" height="118" rx="12" fill="#e2e8f0" stroke="#94a3b8" stroke-width="2"/>
  <line x1="564" y1="296" x2="736" y2="414" stroke="#94a3b8" stroke-width="2"/>
  <line x1="736" y1="296" x2="564" y2="414" stroke="#94a3b8" stroke-width="2"/>
  <text x="650" y="360" text-anchor="middle" font-family="Arial, sans-serif" font-size="20" fill="#334155">Project Image</text>
  <text x="564" y="450" font-family="Arial, sans-serif" font-size="22" fill="#1f2937">Project Title</text>
  <rect x="564" y="468" width="152" height="10" rx="5" fill="#cbd5e1"/>
  <rect x="564" y="488" width="160" height="10" rx="5" fill="#cbd5e1"/>
  <rect x="564" y="508" width="148" height="10" rx="5" fill="#cbd5e1"/>
  <rect x="564" y="540" width="90" height="26" rx="13" fill="#fed7aa" stroke="#f97316" stroke-width="2"/>
  <text x="609" y="558" text-anchor="middle" font-family="Arial, sans-serif" font-size="15" fill="#9a3412">Details</text>

  <rect x="40" y="620" width="720" height="72" rx="14" fill="#f8fafc" stroke="#94a3b8" stroke-width="2"/>
  <text x="68" y="660" font-family="Arial, sans-serif" font-size="24" fill="#1f2937">Call to action: view more work or contact Ethan</text>
  <rect x="68" y="674" width="408" height="10" rx="5" fill="#cbd5e1"/>

  <rect x="30" y="706" width="740" height="30" rx="10" fill="#dbe4ee" stroke="#94a3b8" stroke-width="2"/>
  <text x="400" y="726" text-anchor="middle" font-family="Arial, sans-serif" font-size="18" fill="#334155">Footer: contact links, copyright, navigation repeat</text>
</svg>
