<svg xmlns="http://www.w3.org/2000/svg" viewBox="0 0 800 760" role="img" aria-labelledby="title desc">
  <title id="title">About Me page wireframe</title>
  <desc id="desc">Wireframe for the About Me page showing the shared header, profile image, biography text, strengths, goals, and footer.</desc>
  <rect width="800" height="760" fill="#ffffff"/>

  <rect x="30" y="24" width="740" height="76" rx="12" fill="#dbe4ee" stroke="#94a3b8" stroke-width="2"/>
  <rect x="54" y="42" width="150" height="40" rx="8" fill="#f8fafc" stroke="#94a3b8" stroke-width="2"/>
  <text x="129" y="67" text-anchor="middle" font-family="Arial, sans-serif" font-size="22" fill="#334155">Logo</text>
  <rect x="450" y="42" width="88" height="40" rx="8" fill="#f8fafc" stroke="#94a3b8" stroke-width="2"/>
  <rect x="548" y="42" width="98" height="40" rx="8" fill="#f8fafc" stroke="#94a3b8" stroke-width="2"/>
  <rect x="656" y="42" width="88" height="40" rx="8" fill="#f8fafc" stroke="#94a3b8" stroke-width="2"/>
  <text x="494" y="67" text-anchor="middle" font-family="Arial, sans-serif" font-size="18" fill="#334155">Home</text>
  <text x="597" y="67" text-anchor="middle" font-family="Arial, sans-serif" font-size="18" fill="#334155">About</text>
  <text x="700" y="67" text-anchor="middle" font-family="Arial, sans-serif" font-size="18" fill="#334155">Projects</text>

  <rect x="40" y="128" width="238" height="286" rx="14" fill="#f8fafc" stroke="#94a3b8" stroke-width="2"/>
  <rect x="72" y="164" width="174" height="188" rx="12" fill="#e2e8f0" stroke="#94a3b8" stroke-width="2"/>
  <line x1="72" y1="164" x2="246" y2="352" stroke="#94a3b8" stroke-width="2"/>
  <line x1="246" y1="164" x2="72" y2="352" stroke="#94a3b8" stroke-width="2"/>
  <text x="159" y="265" text-anchor="middle" font-family="Arial, sans-serif" font-size="24" fill="#334155">Profile Image</text>
  <rect x="88" y="374" width="142" height="10" rx="5" fill="#cbd5e1"/>
  <rect x="100" y="394" width="118" height="10" rx="5" fill="#cbd5e1"/>

  <rect x="308" y="128" width="452" height="286" rx="14" fill="#f8fafc" stroke="#94a3b8" stroke-width="2"/>
  <text x="336" y="170" font-family="Arial, sans-serif" font-size="28" fill="#1f2937">Headline: About Ethan</text>
  <rect x="336" y="196" width="380" height="10" rx="5" fill="#cbd5e1"/>
  <rect x="336" y="216" width="392" height="10" rx="5" fill="#cbd5e1"/>
  <rect x="336" y="236" width="360" height="10" rx="5" fill="#cbd5e1"/>
  <rect x="336" y="268" width="384" height="10" rx="5" fill="#cbd5e1"/>
  <rect x="336" y="288" width="395" height="10" rx="5" fill="#cbd5e1"/>
  <rect x="336" y="308" width="346" height="10" rx="5" fill="#cbd5e1"/>
  <text x="336" y="354" font-family="Arial, sans-serif" font-size="22" fill="#1f2937">Strengths and work habits</text>
  <rect x="336" y="372" width="126" height="26" rx="13" fill="#dbeafe" stroke="#38bdf8" stroke-width="2"/>
  <rect x="474" y="372" width="118" height="26" rx="13" fill="#dbeafe" stroke="#38bdf8" stroke-width="2"/>
  <rect x="604" y="372" width="116" height="26" rx="13" fill="#dbeafe" stroke="#38bdf8" stroke-width="2"/>
  <text x="399" y="390" text-anchor="middle" font-family="Arial, sans-serif" font-size="15" fill="#0f172a">Semantic HTML</text>
  <text x="533" y="390" text-anchor="middle" font-family="Arial, sans-serif" font-size="15" fill="#0f172a">Consistency</text>
  <text x="662" y="390" text-anchor="middle" font-family="Arial, sans-serif" font-size="15" fill="#0f172a">Revision</text>

  <rect x="40" y="444" width="350" height="222" rx="14" fill="#f8fafc" stroke="#94a3b8" stroke-width="2"/>
  <text x="68" y="486" font-family="Arial, sans-serif" font-size="24" fill="#1f2937">Growth Timeline</text>
  <rect x="68" y="516" width="294" height="10" rx="5" fill="#cbd5e1"/>
  <rect x="68" y="536" width="278" height="10" rx="5" fill="#cbd5e1"/>
  <rect x="68" y="568" width="130" height="44" rx="10" fill="#e2e8f0" stroke="#94a3b8" stroke-width="2"/>
  <rect x="232" y="568" width="130" height="44" rx="10" fill="#e2e8f0" stroke="#94a3b8" stroke-width="2"/>
  <text x="133" y="595" text-anchor="middle" font-family="Arial, sans-serif" font-size="16" fill="#334155">Coursework</text>
  <text x="297" y="595" text-anchor="middle" font-family="Arial, sans-serif" font-size="16" fill="#334155">Goals</text>

  <rect x="410" y="444" width="350" height="222" rx="14" fill="#f8fafc" stroke="#94a3b8" stroke-width="2"/>
  <text x="438" y="486" font-family="Arial, sans-serif" font-size="24" fill="#1f2937">Workspace / Support Image</text>
  <rect x="438" y="514" width="294" height="112" rx="12" fill="#e2e8f0" stroke="#94a3b8" stroke-width="2"/>
  <line x1="438" y1="514" x2="732" y2="626" stroke="#94a3b8" stroke-width="2"/>
  <line x1="732" y1="514" x2="438" y2="626" stroke="#94a3b8" stroke-width="2"/>
  <text x="585" y="576" text-anchor="middle" font-family="Arial, sans-serif" font-size="22" fill="#334155">Supporting Image</text>
  <rect x="438" y="642" width="286" height="10" rx="5" fill="#cbd5e1"/>

  <rect x="30" y="686" width="740" height="50" rx="12" fill="#dbe4ee" stroke="#94a3b8" stroke-width="2"/>
  <text x="400" y="717" text-anchor="middle" font-family="Arial, sans-serif" font-size="22" fill="#334155">Footer: contact links and copyright</text>
</svg>
